<svg width="17" height="17" viewBox="0 0 17 17" fill="none" xmlns="http://www.w3.org/2000/svg">
<path d="M7.73463 0.317026C8.22469 0.114038 8.77531 0.114037 9.26537 0.317025L13.745 2.17257C14.2351 2.37556 14.6244 2.7649 14.8274 3.25496L16.683 7.73463C16.886 8.22469 16.886 8.77531 16.683 9.26537L14.8274 13.745C14.6244 14.2351 14.2351 14.6244 13.745 14.8274L9.26537 16.683C8.77531 16.886 8.22469 16.886 7.73463 16.683L3.25496 14.8274C2.7649 14.6244 2.37556 14.2351 2.17257 13.745L0.317026 9.26537C0.114038 8.77531 0.114037 8.22469 0.317025 7.73463L2.17257 3.25496C2.37556 2.7649 2.7649 2.37556 3.25496 2.17257L7.73463 0.317026Z" fill="#EC4A9B"/>
<path d="M11.087 6.65186L7.52993 10.3475L5.91309 8.66767" stroke="white" stroke-linecap="round" stroke-linejoin="round"/>
</svg>
